<svg width="15" height="17" viewBox="0 0 15 17" fill="none" xmlns="http://www.w3.org/2000/svg">
<path d="M14.8006 4.76817L10.0278 0.19125C9.96447 0.130551 9.88926 0.0824186 9.80649 0.0496033C9.72372 0.016788 9.63502 -6.73369e-05 9.54545 2.02168e-07H1.36364C1.00198 2.02168e-07 0.655131 0.137774 0.3994 0.383014C0.143668 0.628254 0 0.960871 0 1.30769V15.6923C0 16.0391 0.143668 16.3717 0.3994 16.617C0.655131 16.8622 1.00198 17 1.36364 17H13.6364C13.998 17 14.3449 16.8622 14.6006 16.617C14.8563 16.3717 15 16.0391 15 15.6923V5.23077C15.0001 5.14488 14.9825 5.05982 14.9483 4.98044C14.9141 4.90107 14.8639 4.82894 14.8006 4.76817ZM10.2273 2.23207L12.6724 4.57692H10.2273V2.23207ZM13.6364 15.6923H1.36364V1.30769H8.86364V5.23077C8.86364 5.40418 8.93547 5.57049 9.06334 5.69311C9.1912 5.81573 9.36462 5.88462 9.54545 5.88462H13.6364V15.6923ZM10.0278 9.3451C10.0912 9.40584 10.1414 9.47796 10.1757 9.55734C10.21 9.63671 10.2277 9.72178 10.2277 9.80769C10.2277 9.8936 10.21 9.97867 10.1757 10.058C10.1414 10.1374 10.0912 10.2095 10.0278 10.2703C9.96449 10.331 9.88929 10.3792 9.80652 10.4121C9.72375 10.445 9.63504 10.4619 9.54545 10.4619C9.45587 10.4619 9.36716 10.445 9.28439 10.4121C9.20162 10.3792 9.12642 10.331 9.06307 10.2703L8.18182 9.42437V13.0769C8.18182 13.2503 8.10998 13.4166 7.98212 13.5393C7.85425 13.6619 7.68083 13.7308 7.5 13.7308C7.31917 13.7308 7.14575 13.6619 7.01788 13.5393C6.89002 13.4166 6.81818 13.2503 6.81818 13.0769V9.42437L5.93693 10.2703C5.87358 10.331 5.79838 10.3792 5.71561 10.4121C5.63284 10.445 5.54413 10.4619 5.45455 10.4619C5.36496 10.4619 5.27625 10.445 5.19348 10.4121C5.11071 10.3792 5.03551 10.331 4.97216 10.2703C4.90881 10.2095 4.85856 10.1374 4.82428 10.058C4.78999 9.97867 4.77235 9.8936 4.77235 9.80769C4.77235 9.72178 4.78999 9.63671 4.82428 9.55734C4.85856 9.47796 4.90881 9.40584 4.97216 9.3451L7.01761 7.38356C7.08094 7.32276 7.15613 7.27454 7.2389 7.24163C7.32168 7.20873 7.4104 7.19179 7.5 7.19179C7.5896 7.19179 7.67832 7.20873 7.7611 7.24163C7.84387 7.27454 7.91906 7.32276 7.98239 7.38356L10.0278 9.3451Z" fill="#191919"/>
</svg>
